/* XPM */
static const char *const exit_xpm[] = {
"16 16 57 1",
" 	c None",
".	c #303030",
"+	c #4D4D4D",
"@	c #525252",
"#	c #B2B2B2",
"$	c #B1B1B1",
"%	c #858585",
"&	c #3B3B3B",
"*	c #666666",
"=	c #6D6D6D",
"-	c #EEEEEE",
";	c #4A0101",
">	c #3B3A3A",
",	c #A31B1B",
"'	c #452C2C",
")	c #636363",
"!	c #4F4F4F",
"~	c #680A0A",
"{	c #921616",
"]	c #C52424",
"^	c #A21C1C",
"/	c #5E5757",
"(	c #5D5D5D",
"_	c #545454",
":	c #8C1414",
"<	c #D02727",
"[	c #852121",
"}	c #636060",
"|	c #CB2626",
"1	c #692F2F",
"2	c #666565",
"3	c #C02323",
"4	c #5D4141",
"5	c #8B1414",
"6	c #CF2727",
"7	c #6D2F2F",
"8	c #656464",
"9	c #3A0000",
"0	c #3C0000",
"a	c #BD2222",
"b	c #861D1D",
"c	c #635F5F",
"d	c #6C6C6C",
"e	c #891414",
"f	c #3E3131",
"g	c #606060",
"h	c #7A7A7A",
"i	c #CECECE",
"j	c #686868",
"k	c #BFBFBF",
"l	c #EDEDED",
"m	c #383838",
"n	c #5E5E5E",
"o	c #AFAFAF",
"p	c #E9E9E9",
"q	c #323232",
"r	c #9E9E9E",
"                ",
"     .+++++@#$% ",
"     &*****=--$ ",
"    ;>*****=--$ ",
"    ,'***)!=--$ ",
" ~{{]^/**(_=--$ ",
" :<<<<[}***=--$ ",
" :<<<<|12**=--$ ",
" :<<<<34***=--$ ",
" 566<|78***=--$ ",
"  90abc****d--$ ",
"    ef***ghi--$ ",
"     &*)jkl---$ ",
"     mnop-----$ ",
"     qr$$$$$$$% ",
"                "};
