/* XPM */
static const char *const icon_xpm[] = {
/* columns rows colors chars-per-pixel */
"16 16 214 2",
"  	c None",
". 	c #FFFFFF",
"+ 	c #303030",
"@ 	c #000000",
"# 	c #C7C7C7",
"$ 	c #A7A7A7",
"% 	c #7F7F7F",
"& 	c #484838",
"* 	c #404030",
"= 	c #9F9F9F",
"- 	c #BFBFBF",
"; 	c #E7E7E7",
"> 	c #505041",
", 	c #080804",
"' 	c #383810",
") 	c #58580E",
"! 	c #7F7F00",
"~ 	c #B7B700",
"{ 	c #BFBF00",
"] 	c #60600C",
"^ 	c #404010",
"/ 	c #979797",
"( 	c #DFDFDF",
"_ 	c #D7D7D7",
": 	c #8F8F8F",
"< 	c #383828",
"[ 	c #18180A",
"} 	c #AFAF00",
"| 	c #F7F700",
"1 	c #FFFF00",
"2 	c #68680A",
"3 	c #20200C",
"4 	c #303021",
"5 	c #7F7F7B",
"6 	c #CFCFCF",
"7 	c #AFAFAF",
"8 	c #28281A",
"9 	c #28280E",
"0 	c #707007",
"a 	c #C7C700",
"b 	c #CFCF00",
"c 	c #7F7F04",
"d 	c #30300F",
"e 	c #202014",
"f 	c #979792",
"g 	c #50500F",
"h 	c #D7D700",
"i 	c #DFDF00",
"j 	c #68680D",
"k 	c #68685B",
"l 	c #38381E",
"m 	c #979705",
"n 	c #303015",
"o 	c #A7A7A2",
"p 	c #383813",
"q 	c #EFEF00",
"r 	c #8F8F86",
"s 	c #7F7F73",
"t 	c #585811",
"u 	c #70700E",
"v 	c #686858",
"w 	c #F7F7F7",
"x 	c #50503E",
"y 	c #7F7F0C",
"z 	c #979709",
"A 	c #484834",
"B 	c #EFEFEF",
"C 	c #383825",
"D 	c #AFAF05",
"E 	c #30301B",
"F 	c #40402C",
"G 	c #787869",
"H 	c #87870D",
"I 	c #A7A705",
"J 	c #585847",
"K 	c #404014",
"L 	c #606051",
"M 	c #9F9F05",
"N 	c #282818",
"O 	c #70700B",
"P 	c #8F8F8B",
"Q 	c #E7E700",
"R 	c #202012",
"S 	c #101008",
"T 	c #9F9F00",
"U 	c #606054",
"V 	c #101009",
"W 	c #8F8F00",
"X 	c #707069",
"Y 	c #18180B",
"Z 	c #878700",
"` 	c #787874",
" .	c #18180E",
"..	c #68685E",
"+.	c #979700",
"@.	c #B7B7B7",
"#.	c #484810",
"$.	c #18180D",
"%.	c #20200E",
"&.	c #8F8F04",
"*.	c #707065",
"=.	c #60600F",
"-.	c #9F9F9A",
";.	c #8F8F09",
">.	c #707062",
",.	c #B7B706",
"'.	c #484836",
").	c #404028",
"!.	c #383821",
"~.	c #38381A",
"{.	c #383817",
"].	c #B7B7B1",
"^.	c #FF0000",
"/.	c #9F9F0A",
"(.	c #60604E",
"_.	c #7F7F08",
":.	c #282815",
"<.	c #202010",
"[.	c #7F7F77",
"}.	c #FF3838",
"|.	c #FFC7C7",
"1.	c #FFA7A7",
"2.	c #FF5858",
"3.	c #FF9F9F",
"4.	c #FF6060",
"5.	c #FF4040",
"6.	c #FFBFBF",
"7.	c #A7A700",
"8.	c #101007",
"9.	c #FFEFEF",
"0.	c #FF2828",
"a.	c #FFE7E7",
"b.	c #FFCFCF",
"c.	c #FF3030",
"d.	c #787804",
"e.	c #58584A",
"f.	c #FF7070",
"g.	c #FF8F8F",
"h.	c #FFAFAF",
"i.	c #878787",
"j.	c #FFDFDF",
"k.	c #FFF7F7",
"l.	c #FF2020",
"m.	c #FF4848",
"n.	c #FFB7B7",
"o.	c #FF7F7F",
"p.	c #FF6868",
"q.	c #FF9797",
"r.	c #FFD7D7",
"s.	c #FF5050",
"t.	c #5D5D5D",
"u.	c #202020",
"v.	c #8D8D8D",
"w.	c #161616",
"x.	c #6C6C6C",
"y.	c #707070",
"z.	c #505050",
"A.	c #1A1A1A",
"B.	c #A0A0A0",
"C.	c #242424",
"D.	c #383838",
"E.	c #484848",
"F.	c #525252",
"G.	c #6E6E6E",
"H.	c #A5A5A5",
"I.	c #818181",
"J.	c #323232",
"K.	c #2F2F2F",
"L.	c #434343",
"M.	c #9D9D9D",
"N.	c #2B2B2B",
"O.	c #868686",
"P.	c #959595",
"Q.	c #1B1B1B",
"R.	c #4C4C4C",
"S.	c #5E5E5E",
"T.	c #606060",
"U.	c #212121",
"V.	c #9B9B9B",
"W.	c #FF7878",
"X.	c #FF8787",
"Y.	c #282828",
"Z.	c #5B5B5B",
"`.	c #696969",
" +	c #7C7C7C",
".+	c #3A3A3A",
"++	c #2A2A2A",
"@+	c #393939",
"#+	c #686868",
"$+	c #747474",
"%+	c #252525",
"&+	c #646464",
"*+	c #636363",
"=+	c #767676",
"-+	c #424242",
";+	c #585858",
">+	c #909090",
",+	c #222222",
"'+	c #575757",
")+	c #7B7B7B",
"!+	c #717171",
"~+	c #4B4B4B",
"{+	c #343434",
"]+	c #8B8B8B",
"^+	c #3F3F3F",
"/+	c #848484",
"(+	c #313131",
"_+	c #3E3E3E",
":+	c #404040",
"<+	c #787878",
"[+	c #030303",
"}+	c #262626",
"|+	c #101010",
"1+	c #000000",
"                                ",
"                      q q q     ",
"                    q 1 1 1 q   ",
"                    q 1 1 1 |   ",
"                    q 1 1 1 q   ",
"                      q | q     ",
"            9.9.  (             ",
"            w w 6 $ ;           ",
"          w . . H.H.-           ",
"        9.w . 6 H.H.H._         ",
"        w . B H.H.H.H.].        ",
"      w . . - H.H.H.H.H.6       ",
"      w . ( H.H.H.H.H.H.$ ;     ",
"    w . . 7 H.H.H.H.H.H.H.-     ",
"  b.. . w _ _ _ _ _ _ _ _ _ b.  ",
"                                "};
