/* XPM */
static const char *const icon_xpm[] = {
/* columns rows colors chars-per-pixel */
"16 16 4 1",
" 	c None",
".	c #FF0000",
"+	c #FF0101",
"@	c #000000",
"                ",
" ..          .. ",
" ..          .. ",
"    .      +    ",
"   @ .    . @   ",
"   @@  ..  @@   ",
"   @@@    @@@   ",
"   @@@@@@@@@@   ",
"   @@@@@ @@@@   ",
"   @@@    @@@   ",
"   @@  ..  @@   ",
"   @  ....  @   ",
"    .      .    ",
" ...        ... ",
" ..          .. ",
"                "};
