/* XPM */
static const char *const superpixels_xpm[] = {
"16 16 3 1",
" 	c None",
".	c #FF0000",
"+	c #FF0101",
"            ....",
"     ....   ....",
"     ...+   ....",
"     ...+   ....",
"     ....       ",
"....            ",
"....      ....  ",
"....      ....  ",
"....      ....  ",
".......   ....  ",
".......         ",
".......         ",
"...........     ",
"...........     ",
"...........     ",
"...........     "};
